# xmcd
#
# Track frame offsets:
#	150
#	27050
#	43375
#	57182
#	77870
#	93777
#	119957
#	132880
#	152295
#	174090
#	194695
#	221047
#	238102
#
# Disc length: 3431 seconds
#
# Revision: 1
# Processed by: cddbd v1.5PL3 Copyright (c) Steve Scherf et al.
# Submitted via: audiograbber 1.83.01
#
DISCID=b10d650d
DTITLE=Various Artist - Heroes of Blues CD 1
DYEAR=1998
DGENRE=Blues
TTITLE0=Hadden Sayers - Big Shot
TTITLE1=Paul Oscher - Sugar Babe
TTITLE2=Toni (TS) McPhee - Drop Down Mama
TTITLE3=Savoy Brown - Mr. Browns Boogie
TTITLE4=Jack Bruce - Send For Me
TTITLE5=Reverend Rusty and The Case - Lonesome Guitar
TTITLE6=Mitch Woods - Rocket 88
TTITLE7=Foghat - I just want to make Love to You
TTITLE8=Bobby Murray - Chitlin´ and Able
TTITLE9=Innes Sibun - So little Time
TTITLE10=Alvin Lee - I don´t give a Damn
TTITLE11=Canned Heat - Creole Queen
TTITLE12=Sunset Heights - Lost in the Shuffle
EXTD=
EXTT0=
EXTT1=
EXTT2=
EXTT3=
EXTT4=
EXTT5=
EXTT6=
EXTT7=
EXTT8=
EXTT9=
EXTT10=
EXTT11=
EXTT12=
PLAYORDER=
